<svg xmlns="http://www.w3.org/2000/svg" viewBox="0 0 187.93 188.57"><defs><style>.cls-1{fill:#fbbc4c;}</style></defs><title>Recurso 1icones</title><g id="Capa_2" data-name="Capa 2"><g id="Capa_1-2" data-name="Capa 1"><path class="cls-1" d="M548,249.6c0,1.61-.27,2.6-1.7,2.6H546a.37.37,0,0,0-.34.39v.88a.38.38,0,0,1-.38.38h-.13a.38.38,0,0,1-.38-.38v-6a.39.39,0,0,1,.38-.38h1.1c1.28,0,1.79.72,1.79,2.5m-.88,0c0-1.6-.39-1.6-.91-1.6h-.29a.35.35,0,0,0-.3.38v2.55a.37.37,0,0,0,.34.38h.34c.5,0,.82,0,.82-1.71" transform="translate(-511.07 -65.39)"/><path class="cls-1" d="M559,253.86h-.29a.76.76,0,0,1-.59-.33l-.64-1c-.12-.17-.28-.32-.37-.32s-.15.17-.15.38v.89a.38.38,0,0,1-.37.39h-.13a.38.38,0,0,1-.38-.39v-6a.39.39,0,0,1,.38-.38h1.09c1.19,0,1.81,1.33,1.81,2.65a3.29,3.29,0,0,1-.37,1.6,1.84,1.84,0,0,1-.42.52.39.39,0,0,0-.12.52l.73,1.14c.12.18,0,.33-.18.33m-.79-2.94a2.53,2.53,0,0,0,.25-1.17c0-.87-.34-1.76-.91-1.76h-.29a.36.36,0,0,0-.3.39v2.55a.37.37,0,0,0,.35.38h.34c.09,0,.34,0,.56-.39" transform="translate(-511.07 -65.39)"/><path class="cls-1" d="M571.91,250.47q0,3.48-2,3.48t-2-3.48c0-2.3.68-3.47,2-3.47s2,1.17,2,3.47m-.9,0c0-2.58-.83-2.58-1.14-2.58s-1.16,0-1.16,2.58.87,2.6,1.16,2.6,1.14,0,1.14-2.6" transform="translate(-511.07 -65.39)"/><path class="cls-1" d="M584.3,250.58c0,1.62-.25,3.28-2.1,3.28h-1.47a.38.38,0,0,1-.38-.39v-6a.38.38,0,0,1,.38-.37h1.37a1.92,1.92,0,0,1,1.41.52,4.09,4.09,0,0,1,.79,3m-.89,0a3.52,3.52,0,0,0-.53-2.33,1.06,1.06,0,0,0-.78-.27h-.47a.39.39,0,0,0-.38.39v4.2a.38.38,0,0,0,.38.39h.57c.53,0,1.21,0,1.21-2.38" transform="translate(-511.07 -65.39)"/><path class="cls-1" d="M596.12,247.46v3.1c0,2.3-.16,3.38-1.69,3.38s-1.69-1.14-1.69-3.38v-3.1a.39.39,0,0,1,.37-.39h.13a.39.39,0,0,1,.39.39v3.1c0,2.48.35,2.48.8,2.48s.8,0,.8-2.48v-3.1a.39.39,0,0,1,.39-.39h.13a.39.39,0,0,1,.37.39" transform="translate(-511.07 -65.39)"/><path class="cls-1" d="M607.93,253.38a1.83,1.83,0,0,1-1.23.57,1.88,1.88,0,0,1-1.68-1.16,5.17,5.17,0,0,1-.46-2.26,5.29,5.29,0,0,1,.47-2.31A1.87,1.87,0,0,1,606.7,247a1.81,1.81,0,0,1,1.23.57.34.34,0,0,1,0,.52l-.09.09a.44.44,0,0,1-.57,0,.87.87,0,0,0-.54-.26c-.79,0-1.26,1.35-1.26,2.64a4.23,4.23,0,0,0,.38,1.85,1,1,0,0,0,.88.69.88.88,0,0,0,.54-.28.44.44,0,0,1,.57,0l.09.07a.36.36,0,0,1,0,.54" transform="translate(-511.07 -65.39)"/><path class="cls-1" d="M619.65,247.47v.13a.38.38,0,0,1-.38.38h-.38a.39.39,0,0,0-.38.39v5.1a.38.38,0,0,1-.39.39H618a.38.38,0,0,1-.39-.39v-5.1a.39.39,0,0,0-.38-.39h-.39a.38.38,0,0,1-.38-.38v-.13a.38.38,0,0,1,.38-.37h2.43a.38.38,0,0,1,.38.37" transform="translate(-511.07 -65.39)"/><path class="cls-1" d="M629,247.47v6a.38.38,0,0,1-.38.39h-.13a.38.38,0,0,1-.38-.39v-6a.38.38,0,0,1,.38-.37h.13a.38.38,0,0,1,.38.37" transform="translate(-511.07 -65.39)"/><path class="cls-1" d="M641.5,250.47c0,2.32-.69,3.48-2,3.48s-2-1.16-2-3.48.69-3.47,2-3.47,2,1.17,2,3.47m-.9,0c0-2.58-.84-2.58-1.15-2.58s-1.15,0-1.15,2.58.86,2.6,1.15,2.6,1.15,0,1.15-2.6" transform="translate(-511.07 -65.39)"/><path class="cls-1" d="M653.38,247.47v6a.37.37,0,0,1-.37.39.6.6,0,0,1-.52-.35L651,250c-.08-.19-.15-.18-.15,0v3.4a.39.39,0,0,1-.38.39h-.13a.38.38,0,0,1-.39-.39v-6a.37.37,0,0,1,.37-.37.61.61,0,0,1,.52.34l1.51,3.47c.08.19.16.18.16,0v-3.4a.38.38,0,0,1,.37-.37H653a.38.38,0,0,1,.39.37" transform="translate(-511.07 -65.39)"/><path class="cls-1" d="M665.35,252.23a1.6,1.6,0,0,1-1.7,1.72,2.18,2.18,0,0,1-1.81-1.41.37.37,0,0,1,.22-.48l.13,0a.43.43,0,0,1,.51.22c.18.35.5.82.95.82s.8-.29.8-.84-.52-1.12-1.08-1.61a2.94,2.94,0,0,1-1.26-2,1.53,1.53,0,0,1,1.53-1.59,1.69,1.69,0,0,1,1.52,1.06.34.34,0,0,1-.25.46l-.11,0a.48.48,0,0,1-.53-.25.73.73,0,0,0-.63-.41.64.64,0,0,0-.63.7c0,.5.45.89,1,1.35a3.15,3.15,0,0,1,1.38,2.29" transform="translate(-511.07 -65.39)"/><path class="cls-1" d="M558.1,212.44c.11,0,.18,0,.2,0l.05,0,0,0a.5.5,0,0,0,.21,0,.7.7,0,0,0,.24,0,1.19,1.19,0,0,1,.31,0h-.28s0,0,0,0,0,0,0,0h.1s0,0,0,0l-.2,0h-.31l-.77.05c-.42,0-.9.07-1.42.09l-1.52.07-1.08,0-.38,0-.41,0h-1.75s-.05,0-.1,0a.65.65,0,0,1-.2,0h-.21l-2.46,0c-.41.32-.83.63-1.25.93l-1.25.85H572a3.47,3.47,0,0,1,.68.07c.21.05.31.09.31.14s-.21.1-.62.1c-.68,0-1.26,0-1.72,0l-1.37,0-1.46,0c-.52,0-1.17,0-1.95,0v0a1.55,1.55,0,0,1-.51,0L564,215l-1.84,0-2.06,0-2,0h-3.46a15,15,0,0,0-1.67,0,8,8,0,0,0,1.07.07c.72,0,1.68,0,2.86,0l4,.05,4.62.07,4.62.07,4,.06,2.86.09a3,3,0,0,1,1.08.12c0,.07-.21.1-.62.1h-.72l-.12,0-.15,0h0s.18.07.45.08l.58,0,.58.1-.34,0-.27,0-2,.07-4,.17-5.77.24-7.15.28c-2.58.09-5.32.17-8.2.25s-5.86.14-8.92.19l-1.09.58c-.34.18-.68.34-1,.48q0,.08.3.24c.19.12.29.18.29.21s.15.29.44.46a17.92,17.92,0,0,1,1.52,1c.72.51,1.7,1.28,2.93,2.32s2.77,2.5,4.62,4.37l.43.41.82.73,1.56,1.37c.66.58,1.54,1.35,2.65,2.3s2.48,2.12,4.11,3.52,3.61,3.1,5.94,5.08a2.07,2.07,0,0,1,.44.45.87.87,0,0,1,.17.31,0,0,0,0,1,0,0c-.09,0-.25-.1-.48-.31l-.62-.48-1.11-.87-1.32-1-1.26-1c-.39-.31-.71-.56-1-.74s-.38-.26-.38-.24.81.74,2.43,2.09,3.94,3.41,6.95,6.19c.27.21.41.37.41.48s0,0-.07,0a1,1,0,0,1-.51-.31l-4.69-3.8a2.78,2.78,0,0,1,.43.46.65.65,0,0,1,.12.26,2.19,2.19,0,0,1-.5-.34l-.91-.74-.89-.74a3.89,3.89,0,0,0-.44-.34v0l.07.07a10.49,10.49,0,0,0,.87.9l1.28,1.22c.44.41.82.78,1.15,1.11a2.89,2.89,0,0,1,.5.56,0,0,0,0,1,0,0,.81.81,0,0,1-.22-.12c-.13-.08-.35-.25-.68-.51l-1.43-1.12-2.46-2c-.32-.25-.52-.42-.62-.51s-.16-.14-.2-.14l0,0a.53.53,0,0,0,.14.27,2,2,0,0,0,.33.32l.32.28c.09.08.14.13.14.15s0,0-.1,0a1.94,1.94,0,0,1-.62-.24c-.32-.16-.7-.37-1.13-.62l-1.37-.79-1.3-.75c-.39-.23-.7-.4-.94-.53s-.33-.17-.26-.12h0l2.36,2.33,0,.07a11.19,11.19,0,0,1-1.43-.89c-.89-.6-2-1.39-3.48-2.38s-3-2.14-4.84-3.44-3.65-2.66-5.55-4.07-3.75-2.85-5.58-4.3-3.46-2.81-4.92-4.09l-1.61.07-1.17,0h-.1c-1,1.81-2.34,4.08-3.95,6.83s-3.6,6.13-6,10.15a9.51,9.51,0,0,1-.6,1.08,10.89,10.89,0,0,0-.64,1.08.26.26,0,0,1-.17.27,1,1,0,0,0-.34.24v0a6.16,6.16,0,0,1,.65-1.38c.43-.79,1-1.74,1.61-2.86s1.33-2.32,2.09-3.59,1.45-2.48,2.08-3.61,1.18-2.09,1.61-2.88a5.49,5.49,0,0,0,.65-1.39v0a3.46,3.46,0,0,0-.53.77l-1.21,2-1.7,2.87c-.62,1.07-1.27,2.17-1.93,3.29s-1.31,2.21-1.93,3.28-1.2,2-1.72,2.88-.94,1.52-1.28,2-.55.77-.61.77l5.71-10.54q-.65,1.07-1.11,1.89c-.31.54-.65,1.12-1,1.74s-.73,1.2-1.08,1.75-.64,1-.9,1.35-.44.53-.53.53,0,0,0,0v-.06a.76.76,0,0,0-.1.41l-.48.48a.88.88,0,0,1,.21-.55l.34-.34c0-.09.14-.33.29-.72s.31-.84.5-1.34l.54-1.49c.19-.49.33-.88.45-1.18l-.41.72-.48.48.07-.1-.24.2.24-.24.37-.65.48-.48a1.68,1.68,0,0,0,.1-.29.54.54,0,0,0,0-.15.11.11,0,0,0-.07,0c-.11,0-.29.17-.53.51s-.49.72-.75,1.15l-.72,1.14c-.22.34-.36.52-.43.52s-.09-.08-.12-.24a2.87,2.87,0,0,1-.05-.52,2.13,2.13,0,0,1,.07-.55,6.42,6.42,0,0,1-.6.55,3.39,3.39,0,0,1-.6.41,5.72,5.72,0,0,0-.24.57,3.2,3.2,0,0,1-.27.56l-.48.48h-.07l.17-.17a3.86,3.86,0,0,0,.29-.68,2,2,0,0,1,.33-.65c-.07,0-.11,0-.11-.14a3.47,3.47,0,0,1,.53-1.18c.36-.61,1-1.55,1.94-2.83a.93.93,0,0,0-.58.26,8.23,8.23,0,0,0-.62.58l-.55.58c-.16.18-.27.26-.34.26s0,0,0-.1.08-.2.25-.38a1.53,1.53,0,0,0,.36-.72l-.61.65-.31.18.48-.48.13-.07a5.28,5.28,0,0,0,.35-.52,1.5,1.5,0,0,0,.13-.71,5.88,5.88,0,0,1,.45-1.8c.3-.81.68-1.75,1.16-2.81s1-2.2,1.63-3.42,1.22-2.44,1.86-3.65h-2.48l-.32,0,0,0h-2.05a1,1,0,0,1-.28,0h.24c.05,0,.07,0,.07,0H515l-.06,0a.06.06,0,0,0-.05,0h.35l.27,0h.07a2.34,2.34,0,0,1,.48,0h.24a1.24,1.24,0,0,0,.27,0,1.42,1.42,0,0,1,.31,0h.41a3.56,3.56,0,0,1,.55-.11c.2,0,.43,0,.68,0l.7,0h1l1.64-3.08c-1.85,0-3.35,0-4.52-.07s-2.07-.09-2.72-.13a12.53,12.53,0,0,1-1.32-.14c-.22,0-.34-.09-.34-.14s.11-.07.33-.08.52,0,.9-.09a16.15,16.15,0,0,1-2.49-.12c-.41-.08-.62-.21-.62-.39s.17-.23.5-.29a8.34,8.34,0,0,1,.94-.12c-.41,0-.62-.1-.62-.24s.07-.13.21-.19a6.35,6.35,0,0,1,1.28-.17c.72-.06,1.84-.1,3.35-.14s3.65-.06,6.39-.08c.41-.76.83-1.52,1.26-2.3s.85-1.52,1.25-2.24.76-1.38,1.08-2,.56-1.12.72-1.51l.68-1.62c.23-.54.46-1,.67-1.47l.57-1.18c.16-.35.28-.6.37-.76.25-.48.52-1,.81-1.69s.54-1.2.77-1.66a7.61,7.61,0,0,1,.43-.81,10.26,10.26,0,0,1,.61-1,6.28,6.28,0,0,1,.67-.81.94.94,0,0,1,.65-.34,1.45,1.45,0,0,1,.94.56,11.34,11.34,0,0,1,1,1.25,13.91,13.91,0,0,1,.79,1.32,2.68,2.68,0,0,1,.32.77,6.59,6.59,0,0,1-.1,1.1,7.48,7.48,0,0,0-.1,1.26,2.06,2.06,0,0,1-.26.94,2,2,0,0,0-.25.88,5.5,5.5,0,0,1-.16.92c-.1.48-.24,1-.41,1.71s-.36,1.37-.58,2.11-.43,1.43-.65,2.07-.42,1.17-.62,1.61-.36.67-.49.72a6.68,6.68,0,0,1-.22.7c-.11.26-.34.77-.71,1.52.87-.57,1.9-1.28,3.08-2.12s2.43-1.77,3.73-2.77,2.62-2.06,4-3.17,2.6-2.18,3.8-3.23,2.27-2.06,3.23-3a23.9,23.9,0,0,0,2.26-2.53c.46-.62.89-.92,1.3-.92a.64.64,0,0,1,.58.34,1.68,1.68,0,0,1,.21.89,1.49,1.49,0,0,1,0,.17,1.49,1.49,0,0,0,0,.21,2.2,2.2,0,0,1,.62-.11,1.39,1.39,0,0,1,1.3,1.34,1.2,1.2,0,0,1-.26.72,2.21,2.21,0,0,1-.87.61l.91.43a.73.73,0,0,1,.46.7,5.54,5.54,0,0,1-.62,2.43,12.72,12.72,0,0,1-1.66,2.55,25,25,0,0,1-2.43,2.59c-.92.86-1.9,1.7-2.92,2.49h5.39l.73,0Zm-43.4,25.63v.52L513,241.36l1.23-2.81Zm2.33,2.47v.51l-1.72,2.77,1.24-2.8Zm-.76-3.9v.3l-.48.48v-.3Zm-.1-4.18a3.67,3.67,0,0,1,.26-.65c.1-.21.2-.42.29-.65l.31-.31h0l-.17,0-.17,0c-.09,0-.15.06-.17.17Zm.58-1s0,0,0-.06Zm.38-.61.31-.31c-.05,0-.13.06-.24.17Zm1.37-2.3a2.21,2.21,0,0,0-.17.23c-.1.12-.19.27-.3.42l-.29.48a3.25,3.25,0,0,1-.24.38l.35-.41a1.16,1.16,0,0,1,.34-.27Zm-.11,3.67a6.43,6.43,0,0,1-.2,1q-.13.48-.24,1l.44-.38c.07-.34.16-.68.26-1a5.81,5.81,0,0,0,.22-1Zm1.27-.76s0,0,0,0,.12-.08.21-.24.19-.34.29-.55.19-.39.26-.56a1.53,1.53,0,0,0,.1-.29l-.34.54-.33.53a2.2,2.2,0,0,0-.22.53m11.71-11.26-1.44-1.3-.75,1.3h.49l.6,0Zm26.76,19.68a3.28,3.28,0,0,1,.55.31c.27.18.56.39.85.62a7.89,7.89,0,0,1,.77.65c.22.2.33.34.33.41s0,0-.07,0a1.16,1.16,0,0,1-.56-.31c-.27-.2-.53-.42-.81-.66s-.52-.47-.73-.69a1.61,1.61,0,0,1-.33-.36" transform="translate(-511.07 -65.39)"/><path class="cls-1" d="M588.83,199.33v.24c0,.07,0,.16,0,.27s0,.24,0,.38c0,.64,0,1.6-.13,2.87a45.34,45.34,0,0,1-.63,4.69q-.51,2.78-1.44,6.34a81.37,81.37,0,0,1-2.55,7.8,19.43,19.43,0,0,1-3.24,5.42,25.32,25.32,0,0,1-11.21,7.77,20.83,20.83,0,0,1-6.94,1.18,10.15,10.15,0,0,1-3.75-.63,6.89,6.89,0,0,1-2.64-1.8,7.48,7.48,0,0,1-1.55-2.8,12,12,0,0,1-.52-3.66,22.08,22.08,0,0,1,.62-4.93,37.23,37.23,0,0,1,1.81-5.63,56.79,56.79,0,0,1,2.95-6.15,72.12,72.12,0,0,1,4-6.47l.45-.71c.18-.3.37-.59.56-.86s.39-.51.57-.72a.75.75,0,0,1,.48-.31q.24,0,.27.48a4.24,4.24,0,0,1,.58-.94.85.85,0,0,1,.62-.36c.46,0,.79.54,1,1.61a.81.81,0,0,1,.76-.34,1.94,1.94,0,0,1,.8.19,3,3,0,0,1,.8.51,2.66,2.66,0,0,1,.64.8,2.24,2.24,0,0,1,.25,1.06,3,3,0,0,1-.44,1.51,1.16,1.16,0,0,1-.1.27l-.24.54c-.1.19-.19.38-.29.58a3.35,3.35,0,0,1-.3.46q-2.09,3.25-3.73,6.33c-.48.89-.94,1.8-1.38,2.74a30.21,30.21,0,0,0-1.18,2.79,25.82,25.82,0,0,0-.84,2.65,9.32,9.32,0,0,0-.33,2.33,3.44,3.44,0,0,0,.69,2.27,2.88,2.88,0,0,0,2.36.84,5.8,5.8,0,0,0,3.49-1.42,18.21,18.21,0,0,0,3.63-3.9,37.39,37.39,0,0,0,3.37-5.82,47.82,47.82,0,0,0,2.72-7.17L583.15,195q.14-.43.36-1.23t.39-1.23a.15.15,0,0,1,0-.1.35.35,0,0,1,.15-.29,1,1,0,0,0,.26-.33V192a6.63,6.63,0,0,1-.33,1.6c-.21.76-.45,1.56-.72,2.42s-.5,1.66-.71,2.41a6.68,6.68,0,0,0-.33,1.61.25.25,0,0,0,0,.07.15.15,0,0,1,0,.07,1.38,1.38,0,0,0,.09-.28c.06-.2.12-.43.19-.68s.18-.61.27-1c.07,0,.19-.28.34-.78l.54-1.68c.19-.62.38-1.18.58-1.69s.36-.8.49-.84l.07.27a1.26,1.26,0,0,1,0,.28l-2,7.49v.07a2.43,2.43,0,0,0,.24-.55c.13-.36.3-.83.49-1.4s.41-1.2.64-1.88.45-1.35.66-2,.41-1.22.59-1.74.3-.91.39-1.13v.17a3.28,3.28,0,0,0,.07-.35.25.25,0,0,0,0-.1.22.22,0,0,1,0-.1l.38-.62a1,1,0,0,1,0,.28,2.38,2.38,0,0,1-.06.34l-.31.41a7.73,7.73,0,0,0-.12.84c-.06.44-.12.94-.19,1.49l-.21,1.64c-.06.55-.11,1-.13,1.34l.27-.86.55-.72-.21.34-.2.69-.38.61a.72.72,0,0,0-.07.26v.27s0,0,.11,0,.25-.24.42-.67.34-.88.5-1.38l.44-1.37a1.94,1.94,0,0,1,.28-.65s.14.14.27.41a1.55,1.55,0,0,1,.21.61v.14l.49-.6.5-.53q.08-.34.12-.66c0-.22.07-.43.12-.64l.44-.65-.13.28c-.05.25-.09.5-.12.77a4.33,4.33,0,0,1-.19.77c.11,0,.17.08.17.24a6.66,6.66,0,0,1-.32,1.36c-.22.71-.63,1.77-1.22,3.19a1,1,0,0,0,.53-.43c.17-.24.34-.49.5-.75s.29-.51.41-.72.2-.34.27-.36h0s.06,0,.06.1a1.08,1.08,0,0,1-.17.46,1.8,1.8,0,0,0-.17.81l.48-.82.28-.28-.38.62-.14.1c-.07.18-.12.34-.17.46a1.18,1.18,0,0,0-.07.43v.22a.54.54,0,0,0,.07.26M584,201.49h0c-.07,0-.14.09-.19.29s-.11.4-.16.63-.09.54-.13.92l.24-.65a4.63,4.63,0,0,1,.17-.61,1.81,1.81,0,0,0,.1-.58m.41-10-.1-.48.24-1.33.24,1.2Zm.72,8.87a5.11,5.11,0,0,1,0-.53v-1.56l-.37.51v1.78a1.14,1.14,0,0,0,.07.41Zm.85,3.73a2.27,2.27,0,0,0,.24-.65,5,5,0,0,1,.38-1l-.21.31a2.17,2.17,0,0,1-.27.37Zm.21-8.8-.07-.34.34-.58.11.27Zm.62,6.26,0,0s0,0,0-.07l0-.07-.27.41a.35.35,0,0,0,.12-.1l.12-.14m.58-2.05c0,.25-.06.49-.11.72s-.09.47-.13.72l-.21.37.12,0,.12,0c.18,0,.28-.06.28-.17v-.07Zm-.34,1.16a.24.24,0,0,0,0,.11Zm.41-7.29-.11-.51,1.06-3.28-.54,3.18Z" transform="translate(-511.07 -65.39)"/><path class="cls-1" d="M618.48,201.42a12.37,12.37,0,0,1,3,1.45,9.31,9.31,0,0,1,2.32,2.24,10.29,10.29,0,0,1,1.51,3.12,14.35,14.35,0,0,1,.53,4.07,22.85,22.85,0,0,1-.58,5.1l2,0h.2a.1.1,0,0,1,.05,0l.06,0a.64.64,0,0,0,.2,0,.49.49,0,0,0,.24,0,.83.83,0,0,1,.31,0H628s0,0,0,0h0s0,0,0,0,0,0,0,0h-.2l-.21,0h-.1a8.22,8.22,0,0,1-.86.07l-1.54.1a21.18,21.18,0,0,1-3.55,7.57,24.37,24.37,0,0,1-6,5.69,27.81,27.81,0,0,1-7.71,3.6,30.73,30.73,0,0,1-8.74,1.25,20.94,20.94,0,0,1-5.26-.64,12,12,0,0,1-4.38-2.05,9.84,9.84,0,0,1-3-3.71,12.88,12.88,0,0,1-1.1-5.58,20.64,20.64,0,0,1,1-6.45,20.93,20.93,0,0,1,2.76-5.56,23.81,23.81,0,0,1,4.13-4.56,28.52,28.52,0,0,1,5.15-3.47,30.06,30.06,0,0,1,5.78-2.31,28.87,28.87,0,0,1,6-1.06,1.11,1.11,0,0,1,.45-.62,1.91,1.91,0,0,1,1.09-.24,9.37,9.37,0,0,1,1.68.19c.64.13,1.26.28,1.88.46s1.19.37,1.73.57l1.24.46ZM608.39,208s0,0-.09-.08a.2.2,0,0,1-.08-.19.42.42,0,0,1,.17-.27.46.46,0,0,1,.17-.17l.68.2a2.1,2.1,0,0,1-.13-.55,3.27,3.27,0,0,1,0-.54,2.74,2.74,0,0,1,.48-1.68,23.72,23.72,0,0,0-5.81,2.75,19.77,19.77,0,0,0-4.51,4.06,17.59,17.59,0,0,0-2.92,5.22,18.08,18.08,0,0,0-1,6.21,8.48,8.48,0,0,0,.29,2.29,4,4,0,0,0,1,1.75,4.7,4.7,0,0,0,1.93,1.11,10.14,10.14,0,0,0,3.06.4,16.33,16.33,0,0,0,5.15-.77,13.37,13.37,0,0,0,4.07-2.18,12.6,12.6,0,0,0,2.94-3.35,15.38,15.38,0,0,0,1.76-4.31h-1a1.87,1.87,0,0,1-.32,0H611.6a1.67,1.67,0,0,1-.32,0H611a0,0,0,0,1,0,0h-2.06a1,1,0,0,1-.27,0h.24c.05,0,.07,0,.07,0h-.21l0,0-.05,0H609l.28,0h.07a1.79,1.79,0,0,1,.48,0h.24a1.24,1.24,0,0,0,.27,0,1,1,0,0,1,.31,0h.41a4.32,4.32,0,0,1,1.24-.13h.7c.24,0,.49,0,.74,0s.41,0,.62,0,.41,0,.62,0h.61a18.49,18.49,0,0,0,.42-4,8.89,8.89,0,0,0-.18-1.86,3.77,3.77,0,0,0-.61-1.46,3,3,0,0,0-1.26-1,5.55,5.55,0,0,0-2-.4.58.58,0,0,1,0,.21q0,.13-.27.27a1,1,0,0,1-.51.14.53.53,0,0,1-.55-.31s0,0-.09-.08a.21.21,0,0,1-.09-.19v0a1.42,1.42,0,0,1-.89-.54l-.29.13a.72.72,0,0,1-.33.07.53.53,0,0,1-.54-.31m-1.76,9.73a0,0,0,0,1,0,0l-.07-.14a.31.31,0,0,1,.11-.17.19.19,0,0,1,.1-.1,3.71,3.71,0,0,1,.62.21c.09,0,.13.07.13.1s-.11.2-.32.25a2.36,2.36,0,0,1-.4.09s-.06,0-.06,0a.33.33,0,0,0-.07-.15m1.2-11.23s0,0,0,0l-.07-.13c0-.05,0-.1.11-.17a.21.21,0,0,1,.1-.11,3.48,3.48,0,0,1,.61.21c.09,0,.14.08.14.1s-.11.2-.32.26a2,2,0,0,1-.4.08s-.07,0-.07-.05a.37.37,0,0,0-.06-.15m1.36-6.33s0,0,0,0l-.07-.13a.33.33,0,0,1,.1-.18.27.27,0,0,1,.11-.1,3.48,3.48,0,0,1,.61.21c.09,0,.14.08.14.1s-.11.2-.33.26a2.83,2.83,0,0,1-.39.08s-.07,0-.07,0a.31.31,0,0,0-.07-.15" transform="translate(-511.07 -65.39)"/><path class="cls-1" d="M620.93,238.07v.52l-1.71,2.77,1.23-2.81Zm43.4-25.63a.48.48,0,0,1,.21,0l.05,0,0,0s.09,0,.2,0a.62.62,0,0,0,.24,0,1.19,1.19,0,0,1,.31,0h-.27s0,0,0,0,0,0,0,0h.1s0,0,0,0l-.21,0h-.31l-.77.05c-.42,0-.89.07-1.42.09l-1.52.07-1.08,0-.37,0-.42,0h-1.74a.15.15,0,0,1-.1,0,.75.75,0,0,1-.21,0h-.2l-2.47,0c-1.55,1.17-3.11,2.22-4.67,3.17a45.36,45.36,0,0,1-4.09,2.24c0,.05.1.13.29.24s.29.18.29.21.15.29.45.46.8.51,1.52,1,1.69,1.28,2.93,2.32,2.77,2.5,4.62,4.37l.42.41.83.73,1.55,1.37,2.66,2.3,4.1,3.52c1.63,1.4,3.61,3.1,5.94,5.08a2.39,2.39,0,0,1,.45.45.87.87,0,0,1,.17.31s0,0,0,0-.25-.1-.48-.31l-.61-.48-1.11-.87-1.32-1c-.46-.37-.88-.71-1.27-1s-.71-.56-1-.74-.37-.26-.37-.24.81.74,2.43,2.09,3.93,3.41,6.94,6.19q.42.31.42.48s0,0-.07,0a1,1,0,0,1-.52-.31l-4.69-3.8a2.4,2.4,0,0,1,.43.46.65.65,0,0,1,.12.26,2.27,2.27,0,0,1-.49-.34l-.91-.74-.89-.74a2.81,2.81,0,0,0-.45-.34v0l.07.07a10.49,10.49,0,0,0,.87.9l1.29,1.22,1.15,1.11a2.61,2.61,0,0,1,.49.56s0,0,0,0a.8.8,0,0,1-.23-.12c-.12-.08-.35-.25-.68-.51l-1.42-1.12q-.93-.72-2.46-2c-.32-.25-.53-.42-.62-.51s-.16-.14-.21-.14l0,0a.46.46,0,0,0,.14.27,2.42,2.42,0,0,0,.32.32l.33.28c.09.08.13.13.13.15s0,0-.1,0a1.92,1.92,0,0,1-.61-.24c-.32-.16-.7-.37-1.13-.62l-1.37-.79c-.48-.27-.92-.52-1.3-.75s-.7-.4-1-.53-.32-.17-.25-.12h0l2.36,2.33,0,.07a10.83,10.83,0,0,1-1.44-.89c-.89-.6-2-1.39-3.47-2.38s-3-2.14-4.85-3.44-3.65-2.66-5.54-4.07-3.76-2.85-5.58-4.3-3.47-2.81-4.93-4.09l-1.61.07-1.16,0h-.1c-1,1.81-2.35,4.08-4,6.83s-3.6,6.13-6,10.15a7.13,7.13,0,0,1-.6,1.08q-.42.66-.63,1.08a.28.28,0,0,1-.17.27.82.82,0,0,0-.34.24v0a5.68,5.68,0,0,1,.65-1.38c.43-.79,1-1.74,1.6-2.86s1.34-2.32,2.09-3.59,1.45-2.48,2.09-3.61,1.18-2.09,1.61-2.88a5.93,5.93,0,0,0,.65-1.39v0a3.1,3.1,0,0,0-.53.77l-1.22,2-1.69,2.87-1.93,3.29c-.67,1.11-1.31,2.21-1.94,3.28s-1.2,2-1.71,2.88-.94,1.52-1.28,2-.55.77-.62.77L627,231.91c-.44.71-.81,1.34-1.12,1.89s-.65,1.12-1,1.74l-1.08,1.75c-.34.54-.65,1-.91,1.35s-.44.53-.53.53,0,0,0,0v-.06a.76.76,0,0,0-.1.41l-.48.48a.87.87,0,0,1,.2-.55l.34-.34a6.39,6.39,0,0,0,.29-.72c.15-.39.32-.84.5-1.34s.37-1,.55-1.49l.44-1.18-.41.72-.48.48.07-.1-.24.2.24-.24.38-.65.48-.48c0-.11.08-.21.1-.29a.9.9,0,0,0,0-.15.09.09,0,0,0-.06,0c-.12,0-.29.17-.53.51s-.5.72-.76,1.15l-.72,1.14c-.21.34-.36.52-.42.52s-.09-.08-.12-.24a2.18,2.18,0,0,1-.06-.52,2.67,2.67,0,0,1,.07-.55,6.42,6.42,0,0,1-.6.55,3,3,0,0,1-.59.41,3.14,3.14,0,0,0-.24.57,2.66,2.66,0,0,1-.28.56l-.48.48h-.07l.18-.17a3.86,3.86,0,0,0,.29-.68,2,2,0,0,1,.32-.65c-.07,0-.1,0-.1-.14a3.47,3.47,0,0,1,.53-1.18c.35-.61,1-1.55,1.93-2.83a1,1,0,0,0-.58.26,8.15,8.15,0,0,0-.61.58l-.55.58c-.16.18-.28.26-.34.26s0,0,0-.1.09-.2.26-.38a1.53,1.53,0,0,0,.36-.72l-.62.65L620,234l.48-.48.14-.07A5,5,0,0,0,621,233a1.48,1.48,0,0,0,.14-.71,6.09,6.09,0,0,1,.44-1.8c.3-.81.69-1.75,1.17-2.81s1-2.2,1.62-3.42,1.23-2.44,1.87-3.65h-2.48l-.33,0,0,0h-2.06a1,1,0,0,1-.27,0h.24s.07,0,.07,0h-.21l0,0-.05,0h.34l.27,0h.07a2.34,2.34,0,0,1,.48,0h.24l.28,0a1.39,1.39,0,0,1,.3,0h.41a3.82,3.82,0,0,1,.55-.11q.31,0,.69,0l.7,0h1c.48-.91.95-1.79,1.41-2.63s.87-1.63,1.26-2.35l1-1.9c.3-.54.52-1,.68-1.3l.79-1.49.87-1.6c.29-.52.54-1,.76-1.39s.36-.7.43-.86c.2-.54.42-1.08.66-1.6l.67-1.48c.21-.45.39-.85.56-1.18s.31-.58.4-.77c.25-.5.52-1.07.8-1.71s.54-1.18.77-1.64c.09-.21.24-.47.43-.81a10.34,10.34,0,0,1,.62-1,6.24,6.24,0,0,1,.66-.81,1,1,0,0,1,.65-.34,1.47,1.47,0,0,1,1,.56,11.34,11.34,0,0,1,1,1.25,11.91,11.91,0,0,1,.78,1.32,2.86,2.86,0,0,1,.33.77,6.59,6.59,0,0,1-.1,1.1,7.47,7.47,0,0,0-.11,1.26,2,2,0,0,1-.25.94,2,2,0,0,0-.26.88,6.27,6.27,0,0,1-.15.92c-.11.48-.24,1-.41,1.71s-.37,1.37-.58,2.11-.44,1.43-.65,2.07-.43,1.17-.62,1.61-.36.67-.5.72a4.92,4.92,0,0,1-.22.7c-.1.26-.34.77-.7,1.52.87-.57,1.89-1.28,3.08-2.12s2.43-1.77,3.73-2.77,2.62-2.06,3.95-3.17,2.6-2.18,3.8-3.23,2.28-2.06,3.24-3a23.66,23.66,0,0,0,2.25-2.53c.46-.62.89-.92,1.31-.92a.64.64,0,0,1,.58.34,1.78,1.78,0,0,1,.2.89,1.16,1.16,0,0,1,0,.17.75.75,0,0,0,0,.21,2.13,2.13,0,0,1,.61-.11,1.41,1.41,0,0,1,1.31,1.34,1.2,1.2,0,0,1-.26.72,2.21,2.21,0,0,1-.87.61l.9.43a.73.73,0,0,1,.46.7,5.52,5.52,0,0,1-.61,2.43,13.18,13.18,0,0,1-1.66,2.55,27.37,27.37,0,0,1-2.43,2.59c-.93.86-1.9,1.7-2.93,2.49h5.39l.74,0Zm-41.07,28.1v.51l-1.71,2.77,1.23-2.8Zm-.75-3.9v.3l-.48.48v-.3Zm-.11-4.18a4.64,4.64,0,0,1,.26-.65c.1-.21.2-.42.29-.65l.31-.31h0l-.18,0a.59.59,0,0,0-.17,0c-.09,0-.14.06-.17.17Zm.59-1s0,0,0-.06Zm.37-.61.31-.31s-.12.06-.24.17Zm1.37-2.3-.17.23c-.09.12-.19.27-.29.42s-.2.32-.29.48a3.25,3.25,0,0,1-.24.38l.34-.41a1.3,1.3,0,0,1,.34-.27Zm-.1,3.67a6.44,6.44,0,0,1-.21,1q-.13.48-.24,1l.45-.38a8.8,8.8,0,0,1,.26-1,6.84,6.84,0,0,0,.22-1Zm1.27-.76s0,0,0,0,.11-.08.21-.24.18-.34.29-.55.18-.39.25-.56a2.2,2.2,0,0,0,.11-.29l-.35.54-.32.53a1.86,1.86,0,0,0-.22.53m11.7-11.26-1.44-1.3-.75,1.3h.5l.6,0Zm26.77,19.68a3,3,0,0,1,.54.31c.28.18.56.39.86.62a9.3,9.3,0,0,1,.77.65c.22.2.32.34.32.41s0,0-.06,0a1.14,1.14,0,0,1-.57-.31c-.26-.2-.53-.42-.8-.66s-.52-.47-.74-.69a1.41,1.41,0,0,1-.32-.36" transform="translate(-511.07 -65.39)"/><path class="cls-1" d="M653,235.88l.45-.51c.18-.21.37-.41.56-.6l.52-.51c.14-.15.24-.23.29-.23s0,0,0,0a1.79,1.79,0,0,1-.49,1.16l-.84,1a10.87,10.87,0,0,1-.81.86,1.69,1.69,0,0,1-.91.48l.42-.6c.11-.17.24-.36.39-.55l.39-.5m31.76-16.08c-1,0-2.13,0-3.32,0h-5.15l-1.11,0-1.3,1.52c-.46.54-.89,1-1.32,1.52s-.8.9-1.13,1.25a3.7,3.7,0,0,1-.73.67,3.56,3.56,0,0,1-.36.26c-.2.12-.42.27-.67.44s-.51.36-.77.57l-.67.54a.06.06,0,0,0,.07.07,1.49,1.49,0,0,0,.52-.19c.25-.12.5-.26.77-.41l.73-.43.48-.27a5,5,0,0,0-.82.67c-.41.38-.85.79-1.3,1.23l-1.27,1.25c-.39.39-.61.63-.68.72-.34.39-.76.85-1.25,1.38s-1.05,1.13-1.66,1.77-1.28,1.29-2,2-1.42,1.34-2.15,2l-.52.48-1,.9c-.36.33-.71.64-1,.91a2.61,2.61,0,0,1-.67.45,2,2,0,0,1,.26-.47c.17-.26.39-.57.66-.92s.56-.74.86-1.15.58-.8.86-1.16.49-.68.66-1a1.61,1.61,0,0,0,.26-.51s0,0,0,0a2.66,2.66,0,0,0-.76.57L658,235.57l-1.21,1.13c-.37.35-.6.52-.69.52a7.41,7.41,0,0,1,.47-.65c.3-.41.65-.86,1-1.34l1-1.32a5,5,0,0,0,.46-.63.06.06,0,0,0-.07-.07,1.78,1.78,0,0,0-.7.4c-.35.26-.72.56-1.11.89s-.76.62-1.11.89a2,2,0,0,1-.67.39.43.43,0,0,1-.21-.38,1.12,1.12,0,0,1,.12-.46c.08-.17.17-.34.26-.51s.18-.34.26-.52a1.09,1.09,0,0,0,.12-.46.38.38,0,0,0-.07-.22.38.38,0,0,1-.07-.26,1.67,1.67,0,0,1,.41-.92,12.33,12.33,0,0,1,.82-1,.29.29,0,0,0,.24-.16,2,2,0,0,0,.19-.36,3.12,3.12,0,0,0,.15-.39.86.86,0,0,1,.14-.26c.34-.34.74-.72,1.18-1.14a4.4,4.4,0,0,0,.91-1.12,3.64,3.64,0,0,0-.45.42c-.27.27-.62.61-1,1s-.88.85-1.37,1.34-1,1-1.42,1.37l-1.2,1.11a3.87,3.87,0,0,1-.72.58s0,0,0-.07a1.45,1.45,0,0,1,.32-.61c.22-.3.49-.64.81-1s.67-.79,1.06-1.21.74-.83,1.06-1.22.59-.72.8-1a1.38,1.38,0,0,0,.33-.56c0-.05,0-.07,0-.07-.37.36-.72.73-1.07,1.09s-.66.71-1,1-.58.57-.81.77a1.79,1.79,0,0,1-.54.38,8.81,8.81,0,0,1,.68-1c.32-.41.72-.88,1.18-1.4s1-1.1,1.58-1.71,1.2-1.26,1.86-1.92a10.67,10.67,0,0,0,.94-1l1.58-1.9,1.54-1.89c.46-.57.76-.91.87-1l1.69-2.23,1.6-2.07c.57-.74,1.11-1.44,1.64-2.1s1-1.23,1.39-1.7a3.94,3.94,0,0,1,.8-.8l2-2.5c.77-1,1.56-2,2.38-3l2.48-3.15,2.33-2.93c.72-.9,1.35-1.67,1.88-2.32s.92-1.1,1.15-1.36a.89.89,0,0,1,.51-.17,1.81,1.81,0,0,1,1.27.62c.41.41.84.81,1.3,1.2a9.55,9.55,0,0,1,1.71,2,15.22,15.22,0,0,1,1.21,2.38,19.92,19.92,0,0,1,.83,2.47c.21.82.38,1.57.49,2.26s.2,1.27.24,1.78.07.85.07,1.06c0,1.48,0,2.81,0,4s0,2.26,0,3.24l2.95.1-3,.86H698a3.51,3.51,0,0,1,.68.06c.21.05.31.1.31.14s-.2.1-.61.1h-1.73l-1.37,0-1.46-.05q-.78,0-2,0v0c0,.05-.06.07-.2.07v.45h.87l1.35,0,1.56,0,1.45,0,1.08.07c.29,0,.43.06.43.1s-.2.11-.62.11h-1.42l-1.54,0-1.76,0h-1.4v0a3.31,3.31,0,0,1,1,.06s-.09,0-.27.06l-.75.05c0,.13,0,.27,0,.39s0,.26,0,.39c.83.07,1.53.15,2.11.24s.87.19.87.28-.23.13-.68.19-1.24.1-2.33.15c-.05.91-.09,1.74-.12,2.48s-.07,1.46-.12,2.14-.09,1.38-.12,2.07-.06,1.46-.09,2.28a9.42,9.42,0,0,1-.46,3c-.26.65-.64,1-1.14,1a3.53,3.53,0,0,1-1.82-.85,1.45,1.45,0,0,1-.58.32,2.21,2.21,0,0,1-.62.09c-.22,0-.44-.29-.65-.88a17.79,17.79,0,0,1-.56-2.05c-.17-.79-.31-1.57-.41-2.34a15.63,15.63,0,0,1-.16-1.78Zm-30.11,17.66,1-1.17a4.48,4.48,0,0,1,.4-.42c.24-.24.5-.5.78-.76l.81-.7a1.38,1.38,0,0,1,.48-.31,2.33,2.33,0,0,1-.36.43l-.77.82-1.13,1.15v.07s0,.07,0,.07h-.19Zm2.36-5.79a.78.78,0,0,0,.39-.1c.13-.07.19-.14.19-.2a1.22,1.22,0,0,1,.22-.33l.51-.65c.2-.24.37-.47.52-.68a1.23,1.23,0,0,0,.22-.4l-.38.4c-.2.21-.42.46-.66.73l-.67.77a1.89,1.89,0,0,0-.34.46m5.4-4.69.14-.13a.81.81,0,0,1,.24-.17.12.12,0,0,1-.1-.07c0-.05-.12-.07-.28-.07a3.14,3.14,0,0,0-.41.41l-1,1c-.39.41-.81.86-1.25,1.35l-1.25,1.38c-.39.44-.71.81-1,1.12a1.72,1.72,0,0,0-.38.56s.13-.1.38-.37.57-.62,1-1l1.25-1.3,1.25-1.31c.38-.39.7-.73,1-1a3.14,3.14,0,0,1,.41-.41m-3.08,4.83a.11.11,0,0,0,0-.07.61.61,0,0,0-.14-.1,3.2,3.2,0,0,0-.37.44l-.26.33q-.12.15-.09.15s.09,0,.19-.13l.53-.52Zm3.77-8.49H663a1.52,1.52,0,0,0-.68.31c-.32.21-.64.43-1,.68l-2,3.05a13.23,13.23,0,0,0,1.16-1.08c.37-.37.74-.79,1.13-1.25l.67-.77c.17-.19.3-.34.39-.46l.21-.27a1,1,0,0,1,.17-.21m-2.84,10.34a1.22,1.22,0,0,0,.39-.34,1.09,1.09,0,0,1,.4-.35.3.3,0,0,0-.07-.08.18.18,0,0,1-.07,0,.22.22,0,0,0-.1,0,1.8,1.8,0,0,0-.33.4,1,1,0,0,0-.22.46m1.23-5.41a.86.86,0,0,0,.14.19l.13,0c0-.05.07-.08.07-.11v0s0-.07-.07-.07h-.27Zm.55,2.46a.23.23,0,0,0,.12.19.4.4,0,0,0,.25.09c.14,0,.21-.05.21-.14a.12.12,0,0,0,0-.1,4.27,4.27,0,0,1-.33-.31.12.12,0,0,0-.1,0c-.07,0-.1.08-.1.1ZM663.1,229a.13.13,0,0,0,0-.08s0,0,0-.09a.11.11,0,0,1,0-.1.24.24,0,0,0-.2.07l-.07.07s.1,0,.17.15.12.15.17.15Zm2.19-1.33c-.11,0-.17,0-.15-.1s-.06-.11-.19-.11-.43.15-.6.45a1.69,1.69,0,0,0-.26.82.29.29,0,0,0,.28.14h.13c0-.25,0-.38.11-.4h.27c.2,0,.31-.08.31-.23a2,2,0,0,1,.1-.56M665,226.4s0,0,0,0a.29.29,0,0,0,0,.17.58.58,0,0,0,.15.25c.11.13.19.19.26.19a.16.16,0,0,0,.1-.07.07.07,0,0,1,0-.06c0-.35-.16-.52-.48-.52m1.4-.79c.14.39.25.59.34.59A1.8,1.8,0,0,0,667,226a.88.88,0,0,0,.24-.19.43.43,0,0,0,.1-.29,2.16,2.16,0,0,0-.24-.23.43.43,0,0,0-.24,0,.79.79,0,0,0-.24.21.31.31,0,0,1-.27.13m18.45-10.06V212c0-.31,0-.67,0-1.08s0-.83,0-1.26,0-.79,0-1.07l.41-.68s0,0,0,0a.44.44,0,0,0-.22.13c-.1.09-.16.14-.19.14a41,41,0,0,0-3.08,3.51q-1.53,2-3.08,4c.8-.12,1.57-.22,2.3-.3a17.37,17.37,0,0,1,1.88-.12,2.61,2.61,0,0,1,1.54.28Zm0,1.65v-.07h-2.12l1.11.07a8.5,8.5,0,0,0,1,0" transform="translate(-511.07 -65.39)"/><path class="cls-1" d="M574.19,145.28a3.41,3.41,0,0,0-.39.93.05.05,0,0,0,.06.06q.12,0,.36-.42t.51-1c.18-.37.33-.7.45-1a3.1,3.1,0,0,0,.18-.51l-.6,1-.57.94" transform="translate(-511.07 -65.39)"/><path class="cls-1" d="M646.12,161.13q-.84-.66-1.08-.9t-.36-.24l-.06.06a.88.88,0,0,0,.24.48,3.84,3.84,0,0,0,.57.57l.57.48q.24.21.24.27s-.06.06-.18.06a3.52,3.52,0,0,1-1.08-.42c-.56-.28-1.22-.64-2-1.08l-2.4-1.38-2.29-1.33q-1-.6-1.65-.93l-.37-.19,4.13,4.07.06.12a18.24,18.24,0,0,1-2.53-1.56c-1.56-1.05-3.6-2.44-6.11-4.19s-5.34-3.76-8.51-6-6.42-4.68-9.75-7.16-6.6-5-9.81-7.56-6.1-4.94-8.66-7.19l-2.83.12c-.92,0-1.61.06-2,.06H590q-2.7,4.75-6.95,12t-10.5,17.84a13.68,13.68,0,0,1-1.05,1.9,21.78,21.78,0,0,0-1.11,1.89.46.46,0,0,1-.31.48,1.83,1.83,0,0,0-.6.42v-.06a10,10,0,0,1,1.15-2.43c.76-1.39,1.7-3.06,2.82-5s2.35-4.07,3.67-6.32,2.55-4.36,3.68-6.34,2.06-3.67,2.82-5.06a9.93,9.93,0,0,0,1.15-2.44v-.06a5.8,5.8,0,0,0-.94,1.36c-.54.9-1.25,2.09-2.13,3.58s-1.88,3.17-3,5-2.24,3.81-3.4,5.78-2.3,3.89-3.4,5.78-2.11,3.57-3,5.05-1.65,2.68-2.26,3.58-1,1.36-1.08,1.36l10-18.54c-.76,1.24-1.41,2.35-2,3.31s-1.14,2-1.8,3.07-1.29,2.11-1.9,3.07-1.13,1.75-1.59,2.38-.77.93-.93.93a.05.05,0,0,1-.06-.06v-.12a1.37,1.37,0,0,0-.18.72l-.85.84a1.55,1.55,0,0,1,.37-1l.6-.6c.08-.16.25-.58.51-1.27s.55-1.46.87-2.34.64-1.76,1-2.62.59-1.56.79-2.08l-.73,1.27-.84.84.12-.18-.42.36.42-.42.66-1.14.85-.85q.12-.3.18-.51a1.35,1.35,0,0,0,.06-.27.17.17,0,0,0-.12-.06c-.2,0-.52.3-.94.9s-.86,1.28-1.32,2l-1.26,2c-.39.6-.64.9-.76.9s-.15-.14-.21-.42a4.39,4.39,0,0,1-.09-.91,4,4,0,0,1,.12-1q-.48.48-1.05,1a5.59,5.59,0,0,1-1,.73,8.65,8.65,0,0,0-.42,1,4.56,4.56,0,0,1-.49,1l-.84.84h-.12l.3-.3a6.56,6.56,0,0,0,.51-1.2,4.07,4.07,0,0,1,.58-1.14q-.18,0-.18-.24a5.92,5.92,0,0,1,.93-2.08c.62-1.06,1.75-2.72,3.4-5a1.64,1.64,0,0,0-1,.45,11.39,11.39,0,0,0-1.09,1l-1,1q-.42.45-.6.45s-.06-.06-.06-.18.15-.34.45-.66a2.68,2.68,0,0,0,.63-1.26l-1.08,1.14-.54.3.84-.84.24-.12a8.77,8.77,0,0,0,.6-.9,2.65,2.65,0,0,0,.24-1.27,10.51,10.51,0,0,1,.78-3.16c.52-1.42,1.21-3.06,2-4.93s1.8-3.87,2.86-6,2.15-4.28,3.28-6.41H556.55a5.17,5.17,0,0,1-.57,0,5.17,5.17,0,0,0-.57,0l.06-.06h-3.61a1.56,1.56,0,0,1-.48-.06h.42q.12,0,.12-.06h-.36a.12.12,0,0,1-.09,0,.12.12,0,0,0-.09,0h.6a2.58,2.58,0,0,0,.48-.06h.12a4,4,0,0,1,.85-.06h.42a2,2,0,0,0,.48-.06,2.23,2.23,0,0,1,.54-.06h.72a5.88,5.88,0,0,1,1-.18,11.26,11.26,0,0,1,1.21-.06c.4,0,14.86,0,15.28,0s.85,0,1.3,0h.42l2.89-5.41c-3.25,0-21.72,0-23.76-.12s-3.64-.16-4.79-.24a22.2,22.2,0,0,1-2.31-.24c-.4-.09-.6-.17-.6-.25s.19-.13.57-.15.91-.07,1.59-.15c-1.08,0-2,0-2.71,0-.15,1.73-.24,3.47-.24,5.23A59.62,59.62,0,0,0,650,164.2c-1-.8-2.3-1.81-3.87-3.07M567,156.2l.84-.84v.54l-.84.84Zm-1.93,2.59-3,4.87,2.17-4.93.84-.85Zm4.09,4.33-3,4.87,2.17-4.93.84-.84Zm76.54,1.44a2.1,2.1,0,0,1-1-.54q-.69-.54-1.41-1.17c-.49-.42-.92-.83-1.3-1.21a3.6,3.6,0,0,1-.57-.63,4.29,4.29,0,0,1,1,.54c.48.32,1,.68,1.51,1.09a17.37,17.37,0,0,1,1.35,1.14q.57.54.57.72s0,.06-.12.06" transform="translate(-511.07 -65.39)"/><path class="cls-1" d="M571.45,141.49q-.24.33-.51.75t-.51.84c-.17.28-.31.5-.43.66l.61-.72a2.57,2.57,0,0,1,.6-.48l.54-1.44s-.14.17-.3.39" transform="translate(-511.07 -65.39)"/><path class="cls-1" d="M571.57,150.3a17.64,17.64,0,0,1,.45-1.77,10.71,10.71,0,0,0,.39-1.84l-.84.84a12.33,12.33,0,0,1-.36,1.75q-.24.84-.42,1.68Z" transform="translate(-511.07 -65.39)"/><path class="cls-1" d="M546.94,117.18q1.89-.15,5.9-.24c2.66-.06,22.22-.11,27-.16l2.23-4,2.2-3.94c.7-1.26,1.33-2.44,1.89-3.52s1-2,1.27-2.65q.6-1.44,1.2-2.85c.4-1,.79-1.81,1.17-2.59s.71-1.48,1-2.08.5-1,.66-1.32c.44-.84.91-1.84,1.41-3s1-2.12,1.35-2.92c.17-.36.42-.83.76-1.41s.7-1.15,1.08-1.69a10.68,10.68,0,0,1,1.17-1.41,1.71,1.71,0,0,1,1.15-.6,2.52,2.52,0,0,1,1.65,1,17.8,17.8,0,0,1,1.75,2.2,22.63,22.63,0,0,1,1.38,2.31,5.08,5.08,0,0,1,.57,1.36,11.83,11.83,0,0,1-.18,1.92,13.61,13.61,0,0,0-.18,2.23,3.6,3.6,0,0,1-.45,1.65A3.5,3.5,0,0,0,602.5,97a10.49,10.49,0,0,1-.27,1.62c-.18.84-.42,1.85-.72,3s-.65,2.4-1,3.7-.76,2.52-1.14,3.64-.74,2.07-1.08,2.83-.64,1.18-.88,1.26a8.58,8.58,0,0,1-.39,1.24c-.18.46-.59,1.35-1.23,2.68,1.52-1,3.33-2.25,5.41-3.74s4.28-3.1,6.56-4.87,4.61-3.62,6.95-5.57,4.58-3.84,6.68-5.68,4-3.61,5.69-5.3a43.38,43.38,0,0,0,4-4.45c.8-1.08,1.56-1.62,2.29-1.62a1.13,1.13,0,0,1,1,.6,3,3,0,0,1,.36,1.56,1.89,1.89,0,0,1,0,.3,2.19,2.19,0,0,0,0,.36,3.8,3.8,0,0,1,1.08-.18A2.41,2.41,0,0,1,638,90.73a2.07,2.07,0,0,1-.45,1.26A3.82,3.82,0,0,1,636,93.08l1.59.75a1.29,1.29,0,0,1,.81,1.23,9.74,9.74,0,0,1-1.08,4.27,23.46,23.46,0,0,1-2.92,4.49,46.63,46.63,0,0,1-4.27,4.54c-1.63,1.52-3.34,3-5.15,4.39h9.48q.57,0,1.29-.06l5.6.12a1.18,1.18,0,0,1,.36,0l.09.06.09.06a1.18,1.18,0,0,0,.36,0,1,1,0,0,0,.42-.06,1.85,1.85,0,0,1,.55.06h-.49s-.06,0-.06,0,0,0-.06,0h.12s.06,0,.06,0,0,0,.06,0a2.19,2.19,0,0,0-.36,0,2.19,2.19,0,0,1-.36,0H642q-.24,0-1.35.09c-.74.06-1.58.12-2.5.15l-2.68.12c-.86,0-1.49.07-1.89.07l-.66,0c-.24,0-.49,0-.73,0h-2.88a.44.44,0,0,0-.19,0,.4.4,0,0,1-.17,0,2.22,2.22,0,0,1-.37,0l-.36,0-4.33-.06c-.72.56-1.45,1.1-2.2,1.62s-1.47,1-2.19,1.5h40.38a5.57,5.57,0,0,1,1.21.12c.36.09.54.17.54.25s-.36.18-1.08.18c-1.21,0-2.22,0-3,0l-2.41-.06-.59,0-.41,0-2.35.06-3.25.06-3.61.06-3.43.06-2.71,0h-3.37a27.36,27.36,0,0,0-3,.06,11.5,11.5,0,0,0,1.9.12c1.26,0,2.94.07,5,.09l7.1.09,8.13.12c2.77,0-.41.08,2.24.12l7.1.12h.38a59.62,59.62,0,0,0-118.35-.91l1-.09" transform="translate(-511.07 -65.39)"/><path class="cls-1" d="M655,117h0" transform="translate(-511.07 -65.39)"/><path class="cls-1" d="M590.52,126.41h.88q.45,0,1.05-.06l1.93.06-2.53-2.28Z" transform="translate(-511.07 -65.39)"/><path class="cls-1" d="M648.59,161.31a5.28,5.28,0,0,0-.78-.6v.06l.12.12a17.38,17.38,0,0,0,1.53,1.6l1.11,1,.3-.34-.71-.58c-.57-.46-1.09-.9-1.57-1.3" transform="translate(-511.07 -65.39)"/><path class="cls-1" d="M636.19,156.56h0c-.08,0-.1,0,0,0" transform="translate(-511.07 -65.39)"/><path class="cls-1" d="M648.29,158.48l-2.23-1.77q-1-.81-1.68-1.29c-.44-.33-.66-.47-.66-.43s1.42,1.31,4.27,3.68q1.65,1.37,3.85,3.3l.33-.42-1.56-1.23c-.75-.58-1.52-1.19-2.32-1.84" transform="translate(-511.07 -65.39)"/><path class="cls-1" d="M659,119.55c-2.91.12-.4.26-4.25.42s-8,.33-12.58.49-9.33.31-14.41.45-10.3.25-15.67.33l-1.93,1q-.9.48-1.74.84,0,.12.51.42c.34.21.51.33.51.37q0,.36.78.81c.52.3,1.41.9,2.68,1.8s3,2.27,5.14,4.09,4.88,4.39,8.13,7.68l.75.72q.45.42,1.44,1.29l2.74,2.41c1.16,1,2.72,2.37,4.66,4s4.36,3.73,7.22,6.2q4,3.42,9.53,8.15a59.41,59.41,0,0,0,12.13-36c0-1.92-.1-3.82-.28-5.7l-5.36.22" transform="translate(-511.07 -65.39)"/><path class="cls-1" d="M569.88,144.58c-.08,0-.22.11-.42.31l-.12.24Z" transform="translate(-511.07 -65.39)"/><path class="cls-1" d="M568.74,146.09l-.06.12s.06,0,.06-.12" transform="translate(-511.07 -65.39)"/><path class="cls-1" d="M569.1,145.19a1,1,0,0,1-.3-.06,1,1,0,0,0-.3-.06q-.24,0-.3.3l-.54,2.64a7.12,7.12,0,0,1,.45-1.14q.27-.54.51-1.14l.54-.54Z" transform="translate(-511.07 -65.39)"/></g></g></svg>