<svg xmlns="http://www.w3.org/2000/svg" viewBox="0 0 119.28 119.28"><defs><style>.cls-1{fill:#fbbc4c;}</style></defs><title>Recurso 1icones</title><g id="Capa_2" data-name="Capa 2"><g id="Capa_1-2" data-name="Capa 1"><path class="cls-1" d="M574.19,145.28a3.41,3.41,0,0,0-.39.93.05.05,0,0,0,.06.06q.12,0,.36-.42t.51-1c.18-.37.33-.7.45-1a3.1,3.1,0,0,0,.18-.51l-.6,1-.57.94" transform="translate(-545.4 -65.39)"/><path class="cls-1" d="M646.12,161.13q-.84-.66-1.08-.9t-.36-.24l-.06.06a.88.88,0,0,0,.24.48,3.84,3.84,0,0,0,.57.57l.57.48q.24.21.24.27s-.06.06-.18.06a3.52,3.52,0,0,1-1.08-.42c-.56-.28-1.22-.64-2-1.08l-2.4-1.38-2.29-1.33q-1-.6-1.65-.93l-.37-.19,4.13,4.07.06.12a18.24,18.24,0,0,1-2.53-1.56c-1.56-1.05-3.6-2.44-6.11-4.19s-5.34-3.76-8.51-6-6.42-4.68-9.75-7.16-6.6-5-9.81-7.56-6.1-4.94-8.66-7.19l-2.83.12c-.92,0-1.61.06-2,.06H590q-2.7,4.75-6.95,12t-10.5,17.84a13.68,13.68,0,0,1-1.05,1.9,21.78,21.78,0,0,0-1.11,1.89.46.46,0,0,1-.31.48,1.83,1.83,0,0,0-.6.42v-.06a10,10,0,0,1,1.15-2.43c.76-1.39,1.7-3.06,2.82-5s2.35-4.07,3.67-6.32,2.55-4.36,3.68-6.34,2.06-3.67,2.82-5.06a9.93,9.93,0,0,0,1.15-2.44v-.06a5.8,5.8,0,0,0-.94,1.36c-.54.9-1.25,2.09-2.13,3.58s-1.88,3.17-3,5-2.24,3.81-3.4,5.78-2.3,3.89-3.4,5.78-2.11,3.57-3,5.05-1.65,2.68-2.26,3.58-1,1.36-1.08,1.36l10-18.54c-.76,1.24-1.41,2.35-2,3.31s-1.14,2-1.8,3.07-1.29,2.11-1.9,3.07-1.13,1.75-1.59,2.38-.77.93-.93.93a.05.05,0,0,1-.06-.06v-.12a1.37,1.37,0,0,0-.18.72l-.85.84a1.55,1.55,0,0,1,.37-1l.6-.6c.08-.16.25-.58.51-1.27s.55-1.46.87-2.34.64-1.76,1-2.62.59-1.56.79-2.08l-.73,1.27-.84.84.12-.18-.42.36.42-.42.66-1.14.85-.85q.12-.3.18-.51a1.35,1.35,0,0,0,.06-.27.17.17,0,0,0-.12-.06c-.2,0-.52.3-.94.9s-.86,1.28-1.32,2l-1.26,2c-.39.6-.64.9-.76.9s-.15-.14-.21-.42a4.39,4.39,0,0,1-.09-.91,4,4,0,0,1,.12-1q-.48.48-1.05,1a5.59,5.59,0,0,1-1,.73,8.65,8.65,0,0,0-.42,1,4.56,4.56,0,0,1-.49,1l-.84.84h-.12l.3-.3a6.56,6.56,0,0,0,.51-1.2,4.07,4.07,0,0,1,.58-1.14q-.18,0-.18-.24a5.92,5.92,0,0,1,.93-2.08c.62-1.06,1.75-2.72,3.4-5a1.64,1.64,0,0,0-1,.45,11.39,11.39,0,0,0-1.09,1l-1,1q-.42.45-.6.45s-.06-.06-.06-.18.15-.34.45-.66a2.68,2.68,0,0,0,.63-1.26l-1.08,1.14-.54.3.84-.84.24-.12a8.77,8.77,0,0,0,.6-.9,2.65,2.65,0,0,0,.24-1.27,10.51,10.51,0,0,1,.78-3.16c.52-1.42,1.21-3.06,2-4.93s1.8-3.87,2.86-6,2.15-4.28,3.28-6.41H556.55a5.17,5.17,0,0,1-.57,0,5.17,5.17,0,0,0-.57,0l.06-.06h-3.61a1.56,1.56,0,0,1-.48-.06h.42q.12,0,.12-.06h-.36a.12.12,0,0,1-.09,0,.12.12,0,0,0-.09,0h.6a2.58,2.58,0,0,0,.48-.06h.12a4,4,0,0,1,.85-.06h.42a2,2,0,0,0,.48-.06,2.23,2.23,0,0,1,.54-.06h.72a5.88,5.88,0,0,1,1-.18,11.26,11.26,0,0,1,1.21-.06c.4,0,14.86,0,15.28,0s.85,0,1.3,0h.42l2.89-5.41c-3.25,0-21.72,0-23.76-.12s-3.64-.16-4.79-.24a22.2,22.2,0,0,1-2.31-.24c-.4-.09-.6-.17-.6-.25s.19-.13.57-.15.91-.07,1.59-.15c-1.08,0-2,0-2.71,0-.15,1.73-.24,3.47-.24,5.23A59.62,59.62,0,0,0,650,164.2c-1-.8-2.3-1.81-3.87-3.07M567,156.2l.84-.84v.54l-.84.84Zm-1.93,2.59-3,4.87,2.17-4.93.84-.85Zm4.09,4.33-3,4.87,2.17-4.93.84-.84Zm76.54,1.44a2.1,2.1,0,0,1-1-.54q-.69-.54-1.41-1.17c-.49-.42-.92-.83-1.3-1.21a3.6,3.6,0,0,1-.57-.63,4.29,4.29,0,0,1,1,.54c.48.32,1,.68,1.51,1.09a17.37,17.37,0,0,1,1.35,1.14q.57.54.57.72s0,.06-.12.06" transform="translate(-545.4 -65.39)"/><path class="cls-1" d="M571.45,141.49q-.24.33-.51.75t-.51.84c-.17.28-.31.5-.43.66l.61-.72a2.57,2.57,0,0,1,.6-.48l.54-1.44s-.14.17-.3.39" transform="translate(-545.4 -65.39)"/><path class="cls-1" d="M571.57,150.3a17.64,17.64,0,0,1,.45-1.77,10.71,10.71,0,0,0,.39-1.84l-.84.84a12.33,12.33,0,0,1-.36,1.75q-.24.84-.42,1.68Z" transform="translate(-545.4 -65.39)"/><path class="cls-1" d="M546.94,117.18q1.89-.15,5.9-.24c2.66-.06,22.22-.11,27-.16l2.23-4,2.2-3.94c.7-1.26,1.33-2.44,1.89-3.52s1-2,1.27-2.65q.6-1.44,1.2-2.85c.4-1,.79-1.81,1.17-2.59s.71-1.48,1-2.08.5-1,.66-1.32c.44-.84.91-1.84,1.41-3s1-2.12,1.35-2.92c.17-.36.42-.83.76-1.41s.7-1.15,1.08-1.69a10.68,10.68,0,0,1,1.17-1.41,1.71,1.71,0,0,1,1.15-.6,2.52,2.52,0,0,1,1.65,1,17.8,17.8,0,0,1,1.75,2.2,22.63,22.63,0,0,1,1.38,2.31,5.08,5.08,0,0,1,.57,1.36,11.83,11.83,0,0,1-.18,1.92,13.61,13.61,0,0,0-.18,2.23,3.6,3.6,0,0,1-.45,1.65A3.5,3.5,0,0,0,602.5,97a10.49,10.49,0,0,1-.27,1.62c-.18.84-.42,1.85-.72,3s-.65,2.4-1,3.7-.76,2.52-1.14,3.64-.74,2.07-1.08,2.83-.64,1.18-.88,1.26a8.58,8.58,0,0,1-.39,1.24c-.18.46-.59,1.35-1.23,2.68,1.52-1,3.33-2.25,5.41-3.74s4.28-3.1,6.56-4.87,4.61-3.62,6.95-5.57,4.58-3.84,6.68-5.68,4-3.61,5.69-5.3a43.38,43.38,0,0,0,4-4.45c.8-1.08,1.56-1.62,2.29-1.62a1.13,1.13,0,0,1,1,.6,3,3,0,0,1,.36,1.56,1.89,1.89,0,0,1,0,.3,2.19,2.19,0,0,0,0,.36,3.8,3.8,0,0,1,1.08-.18A2.41,2.41,0,0,1,638,90.73a2.07,2.07,0,0,1-.45,1.26A3.82,3.82,0,0,1,636,93.08l1.59.75a1.29,1.29,0,0,1,.81,1.23,9.74,9.74,0,0,1-1.08,4.27,23.46,23.46,0,0,1-2.92,4.49,46.63,46.63,0,0,1-4.27,4.54c-1.63,1.52-3.34,3-5.15,4.39h9.48q.57,0,1.29-.06l5.6.12a1.18,1.18,0,0,1,.36,0l.09.06.09.06a1.18,1.18,0,0,0,.36,0,1,1,0,0,0,.42-.06,1.85,1.85,0,0,1,.55.06h-.49s-.06,0-.06,0,0,0-.06,0h.12s.06,0,.06,0,0,0,.06,0a2.19,2.19,0,0,0-.36,0,2.19,2.19,0,0,1-.36,0H642q-.24,0-1.35.09c-.74.06-1.58.12-2.5.15l-2.68.12c-.86,0-1.49.07-1.89.07l-.66,0c-.24,0-.49,0-.73,0h-2.88a.44.44,0,0,0-.19,0,.4.4,0,0,1-.17,0,2.22,2.22,0,0,1-.37,0l-.36,0-4.33-.06c-.72.56-1.45,1.1-2.2,1.62s-1.47,1-2.19,1.5h40.38a5.57,5.57,0,0,1,1.21.12c.36.09.54.17.54.25s-.36.18-1.08.18c-1.21,0-2.22,0-3,0l-2.41-.06-.59,0-.41,0-2.35.06-3.25.06-3.61.06-3.43.06-2.71,0h-3.37a27.36,27.36,0,0,0-3,.06,11.5,11.5,0,0,0,1.9.12c1.26,0,2.94.07,5,.09l7.1.09,8.13.12c2.77,0-.41.08,2.24.12l7.1.12h.38a59.62,59.62,0,0,0-118.35-.91l1-.09" transform="translate(-545.4 -65.39)"/><path class="cls-1" d="M655,117h0" transform="translate(-545.4 -65.39)"/><path class="cls-1" d="M590.52,126.41h.88q.45,0,1.05-.06l1.93.06-2.53-2.28Z" transform="translate(-545.4 -65.39)"/><path class="cls-1" d="M648.59,161.31a5.28,5.28,0,0,0-.78-.6v.06l.12.12a17.38,17.38,0,0,0,1.53,1.6l1.11,1,.3-.34-.71-.58c-.57-.46-1.09-.9-1.57-1.3" transform="translate(-545.4 -65.39)"/><path class="cls-1" d="M636.19,156.56h0c-.08,0-.1,0,0,0" transform="translate(-545.4 -65.39)"/><path class="cls-1" d="M648.29,158.48l-2.23-1.77q-1-.81-1.68-1.29c-.44-.33-.66-.47-.66-.43s1.42,1.31,4.27,3.68q1.65,1.37,3.85,3.3l.33-.42-1.56-1.23c-.75-.58-1.52-1.19-2.32-1.84" transform="translate(-545.4 -65.39)"/><path class="cls-1" d="M659,119.55c-2.91.12-.4.26-4.25.42s-8,.33-12.58.49-9.33.31-14.41.45-10.3.25-15.67.33l-1.93,1q-.9.48-1.74.84,0,.12.51.42c.34.21.51.33.51.37q0,.36.78.81c.52.3,1.41.9,2.68,1.8s3,2.27,5.14,4.09,4.88,4.39,8.13,7.68l.75.72q.45.42,1.44,1.29l2.74,2.41c1.16,1,2.72,2.37,4.66,4s4.36,3.73,7.22,6.2q4,3.42,9.53,8.15a59.41,59.41,0,0,0,12.13-36c0-1.92-.1-3.82-.28-5.7l-5.36.22" transform="translate(-545.4 -65.39)"/><path class="cls-1" d="M569.88,144.58c-.08,0-.22.11-.42.31l-.12.24Z" transform="translate(-545.4 -65.39)"/><path class="cls-1" d="M568.74,146.09l-.06.12s.06,0,.06-.12" transform="translate(-545.4 -65.39)"/><path class="cls-1" d="M569.1,145.19a1,1,0,0,1-.3-.06,1,1,0,0,0-.3-.06q-.24,0-.3.3l-.54,2.64a7.12,7.12,0,0,1,.45-1.14q.27-.54.51-1.14l.54-.54Z" transform="translate(-545.4 -65.39)"/></g></g></svg>